PathFileType	4	(X/Y/Z)	TVC_41_BWA_04_walk_RCNL2025.trc
DataRate	CameraRate	NumFrames	NumMarkers	Units	OrigDataRate	OrigDataStartFrame	OrigNumFrames
100	100	12	27	mm	100	484	553
Frame#	Time	R_Shoulder			L_Shoulder			C7			J_Notch			R_Elbow			L_Elbow			R_Wrist			L_Wrist			R_Asis			L_Asis			R_Psis			L_Psis			Sacral			Thoracic			Sternum			R_Thigh_Lateral			R_Knee_Lateral			R_Shank_Lateral			R_Ankle_Lateral			R_Heel			R_Toe			L_Thigh_Lateral			L_Knee_Lateral			L_Shank_Lateral			L_Ankle_Lateral			L_Heel			L_Toe		
		X1	Y1	Z1	X2	Y2	Z2	X3	Y3	Z3	X4	Y4	Z4	X5	Y5	Z5	X6	Y6	Z6	X7	Y7	Z7	X8	Y8	Z8	X9	Y9	Z9	X10	Y10	Z10	X11	Y11	Z11	X12	Y12	Z12	X13	Y13	Z13	X14	Y14	Z14	X15	Y15	Z15	X16	Y16	Z16	X17	Y17	Z17	X18	Y18	Z18	X19	Y19	Z19	X20	Y20	Z20	X21	Y21	Z21	X22	Y22	Z22	X23	Y23	Z23	X24	Y24	Z24	X25	Y25	Z25	X26	Y26	Z26	X27	Y27	Z27
484	4.83000000	-10.681465	1252.616577	299.823853	62.953724	1268.899902	-28.180256	-0.623143	1334.656738	130.414536	90.222313	1203.569946	154.270340	-149.591736	987.623596	294.307068	-6.960500	987.707886	-108.400856	23.779190	910.633636	313.897217	94.627010	803.980286	-128.815716	-25.472338	885.139954	257.729309	49.328964	853.414856	20.524860	-152.559448	895.336548	145.950455	-137.932770	881.026672	58.580647	-145.246109	888.181610	102.265551	-101.929932	1040.116577	93.746872	97.273354	1021.779602	138.654663	-60.377293	669.681213	348.954742	-66.787056	432.849457	286.420654	-153.507034	320.101593	334.492950	-180.102448	111.574509	270.062012	-215.495605	99.343575	205.580643	-97.618233	48.005939	320.636261	-18.330765	579.619995	-61.697502	1.790825	401.100922	47.575714	-20.180384	258.062561	-0.356372	-65.913445	62.056301	83.858421	-115.352219	46.360027	120.641090	52.670612	38.250648	114.273247
485	4.84000000	-10.956393	1252.874268	298.811401	62.675285	1268.778442	-29.202814	-0.667345	1334.787354	129.340118	89.915451	1203.589966	153.325226	-150.032303	987.952332	293.626801	-6.991608	987.503357	-109.267815	23.477148	910.920532	313.186737	93.922928	803.787598	-129.626690	-25.892679	885.555786	257.264709	48.931839	853.506592	19.974861	-152.915497	895.249939	145.496841	-138.323776	880.809509	58.162964	-145.619637	888.029724	101.829903	-102.661354	1040.218994	93.091522	96.790215	1021.798645	137.867386	-60.142601	669.940613	348.643341	-66.446144	432.963959	286.179688	-153.362091	320.306885	334.332794	-180.077423	111.748116	269.946747	-215.349411	99.574883	205.362656	-97.610725	48.017433	320.416382	-18.244484	579.573730	-61.958282	1.901126	401.086792	47.329708	-20.174824	258.026520	-0.602716	-65.913383	62.018337	83.819717	-115.461868	46.313736	120.460876	52.657059	38.236065	114.251823
486	4.85000000	-11.251734	1253.152222	297.776886	62.410191	1268.665161	-30.239691	-0.717582	1334.929565	128.242630	89.604126	1203.626221	152.372177	-150.476685	988.298218	292.926453	-7.003653	987.309753	-110.149010	23.166782	911.231781	312.466263	93.260998	803.612061	-130.434647	-26.306597	886.016357	256.798401	48.538155	853.607239	19.429684	-153.270569	895.173096	145.041977	-138.711197	880.596375	57.747143	-145.990883	887.884735	101.394560	-103.422119	1040.347534	92.420326	96.309158	1021.834595	137.081451	-59.846878	670.242798	348.330200	-66.059746	433.111969	285.958893	-153.134720	320.538666	334.232422	-179.982544	111.935303	269.909424	-215.180359	99.824303	205.242386	-97.501106	48.031986	320.193726	-18.180328	579.559326	-62.226772	1.989393	401.082062	47.076927	-20.187990	258.007111	-0.860930	-65.921867	61.979073	83.763596	-115.581169	46.264595	120.254173	52.638767	38.222054	114.210533
487	4.86000000	-11.565920	1253.450317	296.720978	62.161823	1268.559448	-31.289410	-0.771696	1335.083374	127.123047	89.290215	1203.678101	151.412247	-150.925949	988.662109	292.205109	-6.998281	987.127930	-111.043892	22.843431	911.565918	311.737625	92.639771	803.451935	-131.240128	-26.712889	886.520569	256.330139	48.148808	853.716492	18.890299	-153.624298	895.107178	144.585815	-139.094498	880.388794	57.333042	-146.359398	887.747986	100.959429	-104.204109	1040.502197	91.731842	95.831657	1021.886841	136.298233	-59.487545	670.590454	348.015442	-65.624153	433.296295	285.761902	-152.812714	320.796814	334.199921	-179.802032	112.134941	269.961243	-214.976227	100.087700	205.235703	-97.269196	48.051506	319.974396	-18.140230	579.578430	-62.502853	2.052245	401.087494	46.816467	-20.223541	258.005035	-1.131556	-65.940849	61.938019	83.687035	-115.708763	46.212845	120.023170	52.614132	38.209320	114.146172
488	4.87000000	-11.897375	1253.768433	295.644409	61.933392	1268.460693	-32.350407	-0.827597	1335.248535	125.982437	88.975548	1203.744873	150.446503	-151.381256	989.044983	291.462006	-6.977212	986.958679	-111.951797	22.502687	911.921631	311.002884	92.057690	803.305573	-132.043579	-27.110317	887.067139	255.859787	47.764656	853.833862	18.357725	-153.976395	895.053162	144.128387	-139.473221	880.188171	56.920589	-146.724808	887.620667	100.524488	-104.998596	1040.682129	91.024734	95.359093	1021.954529	135.519119	-59.062607	670.986084	347.699646	-65.135025	433.519592	285.592590	-152.383392	321.080994	334.243042	-179.518814	112.345863	270.113129	-214.722015	100.360313	205.358032	-96.893852	48.078236	319.765533	-18.125229	579.632385	-62.786026	2.086592	401.103790	46.547577	-20.285048	258.020874	-1.414950	-65.972237	61.894829	83.587234	-115.843254	46.158878	119.770370	52.581615	38.198666	114.055939
489	4.88000000	-12.244499	1254.106445	294.548096	61.727867	1268.368286	-33.421043	-0.883281	1335.424805	124.821953	88.661880	1203.825928	149.476120	-151.843842	989.447571	290.696655	-6.942214	986.802429	-112.871986	22.140506	912.297821	310.264282	91.513134	803.171234	-132.845413	-27.497574	887.654175	255.387314	47.386524	853.958801	17.833027	-154.326584	895.012085	143.669861	-139.846939	879.995850	56.509811	-147.086761	887.503967	100.089836	-105.796371	1040.886475	90.297844	94.892784	1022.036987	134.745560	-58.570698	671.431946	347.383728	-64.587433	433.784363	285.454926	-151.833878	321.390686	334.369202	-179.114685	112.566872	270.375488	-214.400162	100.636871	205.624207	-96.353256	48.114780	319.575073	-18.135614	579.721985	-63.075394	2.089688	401.131592	46.269646	-20.375940	258.055115	-1.711255	-66.017738	61.849342	83.461784	-115.983307	46.103199	119.498459	52.539780	38.190971	113.937561
490	4.89000000	-12.605679	1254.463989	293.433014	61.547981	1268.281250	-34.499638	-0.936848	1335.611938	123.642815	88.350914	1203.920532	148.502274	-152.314850	989.870544	289.908813	-6.895071	986.659668	-113.803619	21.753274	912.693634	309.524200	91.004444	803.047272	-133.645943	-27.873260	888.279602	254.912735	47.015209	854.090881	17.317305	-154.674622	894.984680	143.210464	-140.215317	879.812988	56.100822	-147.444969	887.398834	99.655643	-106.587944	1041.113647	89.550209	94.433968	1022.133423	133.978989	-58.011127	671.929871	347.069031	-63.975933	434.092865	285.353180	-151.151154	321.725281	334.585388	-178.570572	112.796799	270.757965	-213.990738	100.911743	206.048035	-95.625183	48.164112	319.411774	-18.171083	579.847473	-63.369678	2.059170	401.171356	45.982250	-20.499435	258.108002	-2.020387	-66.078888	61.801613	83.308731	-116.127686	46.046394	119.210266	52.487362	38.187153	113.789360
491	4.90000000	-12.979272	1254.840698	292.300293	61.396168	1268.198975	-35.584454	-0.986515	1335.809326	122.446320	88.044266	1204.027710	147.526184	-152.795410	990.314453	289.098480	-6.837561	986.530396	-114.745781	21.337899	913.108276	308.785172	90.529926	802.931885	-134.445442	-28.235882	888.940979	254.436203	46.651463	854.229309	16.811689	-155.020294	894.971558	142.750565	-140.578018	879.640747	55.693836	-147.799156	887.306152	99.222200	-107.363739	1041.362061	88.781181	93.983795	1022.242859	133.220856	-57.383888	672.481445	346.757355	-63.294621	434.447113	285.291565	-150.322388	322.083893	334.897888	-177.866730	113.034538	271.269501	-213.471771	101.179077	206.642059	-94.687325	48.229576	319.285156	-18.230932	580.008362	-63.667244	1.993097	401.223511	45.685154	-20.658489	258.179657	-2.342023	-66.156960	61.751904	83.126732	-116.275261	45.989082	118.908707	52.423313	38.188145	113.610367
492	4.91000000	-13.363614	1255.236206	291.151215	61.274540	1268.120483	-36.673737	-1.030631	1336.016479	121.233826	87.743469	1204.146973	146.549072	-153.286530	990.779663	288.265991	-6.771429	986.414612	-115.697456	20.891853	913.541138	308.049850	90.087891	802.823425	-135.244072	-28.583845	889.635498	253.957947	46.295990	854.373535	16.317331	-155.363358	894.973267	142.290634	-140.934799	879.480103	55.289173	-148.149078	887.226685	98.789904	-108.114296	1041.629395	87.990379	93.543327	1022.364441	132.472595	-56.689705	673.087585	346.450897	-62.537189	434.848907	285.274445	-149.335052	322.465637	335.312347	-176.982971	113.279106	271.917877	-212.819534	101.432999	207.417206	-93.517563	48.314869	319.205322	-18.314234	580.203674	-63.966137	1.889982	401.288330	45.378326	-20.855726	258.269928	-2.675592	-66.252930	61.700722	82.915108	-116.425079	45.931889	118.596672	52.346840	38.194836	113.400352
493	4.92000000	-13.757014	1255.649658	289.987183	61.184868	1268.044922	-37.765713	-1.067692	1336.232666	120.006790	87.449951	1204.277100	145.572205	-153.789047	991.266541	287.411957	-6.698359	986.312012	-116.657555	20.413230	913.991760	307.320938	89.676643	802.720306	-136.041939	-28.915451	890.360107	253.478256	45.949459	854.522827	15.835397	-155.703629	894.990112	141.831238	-141.285400	879.331909	54.887253	-148.494514	887.161011	98.359245	-108.830444	1041.913086	87.177826	93.113548	1022.497131	131.735611	-55.930023	673.748901	346.152191	-61.697044	435.299744	285.306091	-148.177185	322.869598	335.833527	-175.898987	113.529701	272.709930	-212.009079	101.667786	208.382538	-92.094360	48.424049	319.182892	-18.420017	580.431641	-64.264130	1.748813	401.365875	45.061954	-21.093397	258.378601	-3.020280	-66.367462	61.648788	82.673920	-116.576302	45.875416	118.277092	52.257435	38.208046	113.159836
494	4.93000000	-14.157749	1256.080566	288.809723	61.128563	1267.971069	-38.858608	-1.096347	1336.457031	118.766701	87.165047	1204.417236	144.596832	-154.303589	991.775024	286.537323	-6.619958	986.221924	-117.624886	19.900765	914.459717	306.601196	89.294518	802.620911	-136.839031	-29.228924	891.111511	252.997559	45.612480	854.676331	15.367053	-156.040894	895.022156	141.373093	-141.629608	879.196960	54.488602	-148.835251	887.109558	97.930847	-109.503517	1042.210327	86.343910	92.695351	1022.640076	131.011261	-55.107048	674.465393	345.864197	-60.767384	435.800873	285.390717	-146.837570	323.294769	336.465271	-174.594650	113.785690	273.651062	-211.014603	101.878029	209.545029	-90.397026	48.561501	319.228882	-18.547424	580.689819	-64.558762	1.569073	401.456116	44.736427	-21.373323	258.505157	-3.375030	-66.500854	61.597031	82.403976	-116.728226	45.820198	117.952843	52.154907	38.228493	112.890068
495	4.94000000	-14.564066	1256.528076	287.620514	61.106644	1267.898071	-39.950665	-1.115413	1336.688843	117.515137	86.889969	1204.566528	143.624207	-154.830582	992.305054	285.643402	-6.537738	986.143738	-118.598183	19.353867	914.944489	305.893417	88.939888	802.523712	-137.635262	-29.522425	891.886047	252.516342	45.285610	854.833252	14.913461	-156.374924	895.069458	140.916992	-141.967270	879.075684	54.093864	-149.171097	887.072571	97.505428	-110.125511	1042.518188	85.489479	92.289551	1022.792114	130.300873	-54.223732	675.236572	345.590149	-59.741318	436.353180	285.532410	-145.305969	323.740204	337.210358	-173.050247	114.046730	274.745514	-209.809921	102.058853	210.909225	-88.406075	48.731903	319.354370	-18.695847	580.975220	-64.847443	1.350745	401.558807	44.402355	-21.696865	258.648987	-3.738559	-66.653046	61.546543	82.106888	-116.880241	45.766693	117.626770	52.039383	38.256744	112.592995
